PathFileType	4	(x/y/z)	S06_PSF_T06
DataRate	CameraRate	NumFrames	NumMarkers	Units	OrigDataRate	OrigDataStartFrame	OrigNumFrames
240	240	7	51	mm	240	106	420
Frame#	Time	Sternum			R.Acromium			L.Acromium			Top.Head			R.ASIS			L.ASIS			R.PSIS			L.PSIS			R.Great.Tro			L.Great.Tro			R.Iliac.Crest			L.Iliac.Crest			V.Sacral			R.Thigh.Upper.Post			R.Thigh.Lower.Ant			R.Thigh.Lower.Post			R.Thigh.Upper.Ant			R.Knee.Lat			R.Knee.Med			R.Shank.Upper.Post			R.Shank.Lower.Ant			R.Shank.Lower.Post			R.Shank.Upper.Ant			R.Ankle.Lat			R.Ankle.Med			R.Heel.Upper			R.Heel.Med			R.Heel.Lat			R.Toe.Lat			R.Toe.Med			R.Toe.Tip			L.Thigh.Upper.Post			L.Thigh.Lower.Ant			L.Thigh.Lower.Post			L.Thigh.Upper.Ant			L.Knee.Lat			L.Knee.Med			L.Shank.Upper.Post			L.Shank.Lower.Ant			L.Shank.Lower.Post			L.Shank.Upper.Ant			L.Ankle.Lat			L.Ankle.Med			L.Heel.Upper			L.Heel.Med			L.Heel.Lat			L.Toe.Lat			L.Toe.Med			L.Toe.Tip			Cervical.Spine			Back			
		X1	Y1	Z1	X2	Y2	Z2	X3	Y3	Z3	X4	Y4	Z4	X5	Y5	Z5	X6	Y6	Z6	X7	Y7	Z7	X8	Y8	Z8	X9	Y9	Z9	X10	Y10	Z10	X11	Y11	Z11	X12	Y12	Z12	X13	Y13	Z13	X14	Y14	Z14	X15	Y15	Z15	X16	Y16	Z16	X17	Y17	Z17	X18	Y18	Z18	X19	Y19	Z19	X20	Y20	Z20	X21	Y21	Z21	X22	Y22	Z22	X23	Y23	Z23	X24	Y24	Z24	X25	Y25	Z25	X26	Y26	Z26	X27	Y27	Z27	X28	Y28	Z28	X29	Y29	Z29	X30	Y30	Z30	X31	Y31	Z31	X32	Y32	Z32	X33	Y33	Z33	X34	Y34	Z34	X35	Y35	Z35	X36	Y36	Z36	X37	Y37	Z37	X38	Y38	Z38	X39	Y39	Z39	X40	Y40	Z40	X41	Y41	Z41	X42	Y42	Z42	X43	Y43	Z43	X44	Y44	Z44	X45	Y45	Z45	X46	Y46	Z46	X47	Y47	Z47	X48	Y48	Z48	X49	Y49	Z49	X50	Y50	Z50	X51	Y51	Z51	

106	0.4375	-939.37	1295.2	340.95	-1071.5	1499.7	505.23	-1064.1	1502.5	153.87	-1029.8	1818.4	329.96	-992.44	1063.8	462.6	-974.58	1059.5	209.83	NaN	NaN	NaN	-1188.5	1084	281.34	-1042.2	988.88	512.1	-1077.5	982.89	154.05	-1085.1	1134.6	491.26	-1049.8	1131.8	171.77	-1203.2	1046.9	323.98	-932.29	762.79	508.77	-850.29	712.49	475.55	-908.37	678.33	491.6	-874.07	800.5	487.76	-851.78	586.58	485.2	-843.94	588.03	355.3	-924.1	371.4	492.96	-873.29	298.34	479.88	-939.61	295.26	481.91	-859.62	373.37	488.66	-928.99	161.67	467.46	-912.01	163.93	382.82	-993.95	121.84	415.54	-984.86	87.726	389.38	-991.98	93.496	453.18	-822.87	72.114	512.26	-784.66	66.557	395.78	-724.15	80.012	445.86	-1036	722.64	191.62	-998.41	641.64	256.73	-1063.6	638.56	211.38	-974.45	730.17	230.89	-1094.4	543.99	230.18	-1075.8	553.72	352.17	-1174.6	322.77	246.9	-1119.2	253.45	257.39	-1191.4	253.28	267.5	-1107.7	321.91	242.59	-1164.4	111.91	278.42	-1160	133.18	366.72	-1252.5	79.123	316.08	-1251.3	48.456	346.31	-1242.6	53.263	284.77	-1061.1	45.199	265.28	-1053.3	41.361	386.62	-975.24	51.328	339.29	-1121.8	1553.6	328.62	-1186.6	1284.2	323.27
107	0.44167	-934.17	1294.7	341.02	-1066.4	1499.3	505.29	-1058.8	1502.1	153.92	-1024.8	1818.1	330.17	-987.24	1063.3	462.75	-969.74	1058.8	209.89	NaN	NaN	NaN	-1183.4	1083.7	281.57	-1037.1	988.41	512.15	-1072.9	982.5	154.16	-1079.9	1134.2	491.36	-1044.7	1131.3	171.86	-1198	1046.6	324.21	-927.88	762.01	508.34	-846	711.6	475.03	-904.13	677.5	491.07	-869.62	799.64	487.3	-846.97	585.92	484.65	-839.5	587.39	354.8	-914	368.97	492.44	-861.43	297.24	479.09	-927.66	292.5	481.34	-849.72	372.56	487.82	-913.67	159.04	466.41	-896.5	161.92	381.82	-977.61	117.62	414.51	-967.62	83.829	388.28	-974.82	89.217	452.1	-805.12	72.203	510.91	-767.05	67.996	394.41	-706.84	82.927	444.44	-1033.1	722.38	191.71	-995.9	641.02	256.56	-1061.3	638.42	211.41	-971.55	729.41	230.79	-1092.7	543.94	230.15	-1073.8	553.5	352.16	-1173.7	323	246.96	-1118.6	253.46	257.39	-1190.8	253.53	267.63	-1106.8	321.87	242.58	-1164.2	111.99	278.55	-1159.8	133.28	366.81	-1252.4	79.197	316.21	-1251.3	48.519	346.41	-1242.5	53.366	284.88	-1061	45.197	265.3	-1053.3	41.294	386.64	-975.17	51.185	339.3	-1116.6	1553.2	328.61	-1181.4	1283.8	323.27
108	0.44583	-928.96	1294.2	341.1	-1061.3	1498.8	505.35	-1053.4	1501.7	153.97	-1019.7	1817.6	330.37	-982.02	1062.9	462.88	-964.86	1058.2	209.94	NaN	NaN	NaN	-1178.2	1083.3	281.81	-1031.9	987.88	512.2	-1068.2	982.09	154.27	-1074.6	1133.7	491.46	-1039.6	1130.8	171.95	-1192.8	1046.1	324.43	-923.58	761.16	507.98	-841.81	710.6	474.57	-900.02	676.58	490.61	-865.26	798.67	486.87	-842.3	585.16	484.12	-835.19	586.64	354.3	-903.99	366.57	491.89	-849.7	296.21	478.21	-915.78	289.82	480.72	-839.94	371.76	486.94	-898.43	156.56	465.28	-881.07	160.09	380.73	-961.32	113.58	413.39	-950.42	80.16	387.06	-957.69	85.12	450.9	-787.49	72.491	509.41	-749.63	69.711	392.91	-689.74	86.088	442.88	-1030.1	722.08	191.78	-993.37	640.37	256.38	-1058.9	638.25	211.43	-968.62	728.63	230.66	-1090.9	543.87	230.12	-1071.8	553.26	352.13	-1172.8	323.23	247.02	-1118	253.46	257.4	-1190.1	253.79	267.74	-1106	321.82	242.56	-1164.1	112.09	278.67	-1159.5	133.39	366.89	-1252.4	79.272	316.34	-1251.2	48.584	346.52	-1242.5	53.468	284.99	-1061	45.194	265.33	-1053.2	41.233	386.67	-975.11	51.034	339.31	-1111.4	1552.8	328.61	-1176.1	1283.3	323.29
109	0.45	-923.73	1293.6	341.18	-1056.2	1498.3	505.42	-1048.1	1501.2	154.03	-1014.7	1817.2	330.57	-976.79	1062.3	463	-959.94	1057.6	209.99	NaN	NaN	NaN	-1173	1082.9	282.05	-1026.8	987.32	512.25	-1063.5	981.66	154.39	-1069.3	1133.2	491.57	-1034.5	1130.3	172.05	-1187.5	1045.7	324.66	-919.38	760.22	507.69	-837.73	709.49	474.15	-896.02	675.58	490.21	-860.97	797.6	486.47	-837.77	584.3	483.6	-831.03	585.79	353.82	-894.08	364.21	491.31	-838.12	295.25	477.26	-903.99	287.21	480.06	-830.29	370.99	486.04	-883.29	154.25	464.06	-865.76	158.46	379.58	-945.08	109.74	412.2	-933.29	76.724	385.75	-940.61	81.215	449.61	-770.01	72.976	507.77	-732.43	71.698	391.27	-672.89	89.491	441.2	-1027.1	721.77	191.82	-990.81	639.7	256.18	-1056.4	638.07	211.44	-965.65	727.84	230.51	-1089	543.79	230.08	-1069.7	553.02	352.07	-1171.8	323.46	247.06	-1117.3	253.46	257.4	-1189.5	254.06	267.85	-1105.1	321.77	242.53	-1164	112.19	278.79	-1159.2	133.51	366.96	-1252.3	79.35	316.47	-1251.2	48.651	346.62	-1242.5	53.57	285.11	-1061	45.189	265.35	-1053.2	41.177	386.69	-975.05	50.875	339.32	-1106.2	1552.3	328.62	-1170.8	1282.8	323.31
110	0.45417	-918.49	1293.1	341.26	-1051.1	1497.8	505.49	-1042.7	1500.7	154.08	-1009.7	1816.7	330.77	-971.56	1061.8	463.09	-954.99	1056.9	210.05	NaN	NaN	NaN	-1167.8	1082.4	282.28	-1021.6	986.7	512.31	-1058.7	981.2	154.52	-1064.1	1132.7	491.68	-1029.4	1129.7	172.15	-1182.2	1045.2	324.89	-915.26	759.22	507.48	-833.75	708.28	473.77	-892.12	674.5	489.87	-856.74	796.43	486.1	-833.37	583.35	483.08	-826.99	584.83	353.33	-884.29	361.88	490.68	-826.71	294.37	476.24	-892.32	284.7	479.34	-820.79	370.24	485.11	-868.29	152.1	462.78	-850.6	157.02	378.37	-928.94	106.09	410.93	-916.27	73.527	384.33	-923.6	77.507	448.22	-752.68	73.655	505.99	-715.48	73.953	389.52	-656.31	93.132	439.39	-1024.1	721.43	191.85	-988.21	639.01	255.97	-1053.9	637.86	211.44	-962.63	727.03	230.34	-1087.1	543.69	230.03	-1067.6	552.76	352	-1170.8	323.7	247.1	-1116.6	253.45	257.39	-1188.8	254.33	267.95	-1104.1	321.71	242.5	-1163.8	112.3	278.9	-1158.9	133.64	367.03	-1252.3	79.431	316.6	-1251.1	48.722	346.74	-1242.4	53.672	285.23	-1061	45.183	265.38	-1053.1	41.126	386.71	-974.98	50.707	339.33	-1101	1551.9	328.63	-1165.5	1282.3	323.35
111	0.45833	-913.23	1292.5	341.35	-1045.9	1497.2	505.56	-1037.4	1500.1	154.14	-1004.6	1816.2	330.96	-966.31	1061.2	463.17	-950.02	1056.2	210.11	NaN	NaN	NaN	-1162.5	1082	282.52	-1016.4	986.05	512.37	-1053.9	980.71	154.67	-1058.8	1132.1	491.79	-1024.2	1129.1	172.26	-1176.8	1044.7	325.12	-911.21	758.15	507.33	-829.84	706.97	473.43	-888.33	673.35	489.59	-852.57	795.18	485.75	-829.1	582.31	482.57	-823.08	583.77	352.85	-874.63	359.6	490.02	-815.47	293.56	475.16	-880.78	282.29	478.57	-811.46	369.52	484.17	-853.43	150.13	461.42	-835.62	155.78	377.1	-912.92	102.65	409.61	-899.38	70.572	382.83	-906.7	74.003	446.74	-735.55	74.522	504.1	-698.8	76.466	387.65	-640.01	97.001	437.47	-1021	721.06	191.86	-985.57	638.3	255.75	-1051.4	637.63	211.42	-959.56	726.21	230.15	-1085.2	543.57	229.98	-1065.4	552.49	351.91	-1169.7	323.94	247.13	-1115.9	253.45	257.38	-1188.1	254.61	268.04	-1103.1	321.65	242.46	-1163.7	112.42	279.01	-1158.6	133.78	367.1	-1252.2	79.519	316.74	-1251.1	48.797	346.86	-1242.4	53.777	285.36	-1060.9	45.175	265.41	-1053	41.079	386.72	-974.91	50.532	339.35	-1095.8	1551.4	328.65	-1160.1	1281.7	323.39
112	0.4625	-907.95	1291.8	341.43	-1040.8	1496.6	505.63	-1032	1499.6	154.2	-999.54	1815.7	331.15	-961.05	1060.6	463.25	-945	1055.5	210.17	NaN	NaN	NaN	-1157.2	1081.5	282.76	-1011.3	985.37	512.44	-1049	980.21	154.82	-1053.4	1131.6	491.91	-1019	1128.5	172.36	-1171.4	1044.2	325.35	-907.22	757.02	507.25	-826.01	705.58	473.14	-884.62	672.13	489.37	-848.45	793.84	485.44	-824.95	581.18	482.06	-819.29	582.62	352.36	-865.12	357.37	489.31	-804.43	292.83	474.04	-869.4	279.97	477.74	-802.3	368.84	483.21	-838.75	148.32	460	-820.85	154.73	375.78	-897.04	99.405	408.23	-882.65	67.86	381.25	-889.93	70.708	445.18	-718.64	75.569	502.09	-682.42	79.225	385.68	-624.04	101.08	435.45	-1018	720.68	191.85	-982.89	637.57	255.52	-1048.8	637.38	211.4	-956.44	725.38	229.95	-1083.1	543.44	229.94	-1063.2	552.21	351.8	-1168.6	324.18	247.15	-1115.2	253.43	257.37	-1187.3	254.91	268.13	-1102.1	321.58	242.42	-1163.5	112.55	279.11	-1158.2	133.93	367.16	-1252.2	79.614	316.88	-1251	48.879	346.99	-1242.4	53.888	285.49	-1060.9	45.167	265.44	-1053	41.036	386.73	-974.84	50.35	339.36	-1090.6	1550.9	328.68	-1154.7	1281.1	323.44
